<?xml version="1.0" encoding="utf-8"?>
<!-- Generator: Adobe Illustrator 20.0.0, SVG Export Plug-In . SVG Version: 6.00 Build 0)  -->
<svg version="1.1" id="Layer_1" xmlns="http://www.w3.org/2000/svg" xmlns:xlink="http://www.w3.org/1999/xlink" x="0px" y="0px"
	 viewBox="0 0 44 44" enable-background="new 0 0 44 44" xml:space="preserve">
<g id="_x37_08-search-toolbar_x40_2x.png">
	<g>
		<path d="M43.7,42.3l-14-14c2.7-3,4.3-6.9,4.3-11.3c0-9.4-7.6-17-17-17C7.6,0,0,7.6,0,17c0,9.4,7.6,17,17,17
			c4.3,0,8.3-1.6,11.3-4.3l14,14c0.4,0.4,1,0.4,1.4,0S44.1,42.7,43.7,42.3z M17,32C8.7,32,2,25.3,2,17S8.7,2,17,2s15,6.7,15,15
			S25.3,32,17,32z"/>
	</g>
</g>
</svg>
