<?xml version="1.0" encoding="utf-8"?>
<!-- Generator: Adobe Illustrator 20.0.0, SVG Export Plug-In . SVG Version: 6.00 Build 0)  -->
<svg version="1.1" id="Layer_1" xmlns="http://www.w3.org/2000/svg" xmlns:xlink="http://www.w3.org/1999/xlink" x="0px" y="0px"
	 viewBox="0 0 85 85" enable-background="new 0 0 85 85" xml:space="preserve">
<title>Asset 20</title>
<g id="Layer_2">
	<g id="Layer_1-2">
		<path fill="#585856" d="M47.3,65.1L47.3,65.1c-0.6,0-1.3,0-1.9-0.1c-0.5,0.1-1-0.1-1.3-0.5c-4.8-5.9-6.4-12-4.9-18.1
			c1.6-6.5,6.6-12.7,15-18.6C58,25.3,62,23,66.1,21.1c0.7-0.3,1.5,0,1.8,0.7c0,0,0,0,0,0c4.3,10.5,3,24.7-3,33.7
			C61.2,61.6,54.5,65.3,47.3,65.1z M45.8,62.3c0.5,0,1,0,1.5,0l0,0c6.2,0.1,12.1-3.1,15.4-8.3c5.2-7.8,6.5-20.3,3.2-29.8
			c-4.8,2.3-21.1,11-24,22.9C40.6,52.2,42,57.3,45.8,62.3L45.8,62.3z"/>
		<path fill="#585856" d="M45.2,65L45.2,65c-0.8,0-1.4-0.6-1.3-1.4c0,0,0,0,0,0c0-0.5,0.4-11.3,15.5-30.2c0.5-0.6,1.3-0.7,1.9-0.2
			s0.7,1.3,0.2,1.9l0,0c-14.4,18-14.9,28.5-14.9,28.6C46.6,64.4,45.9,65,45.2,65z"/>
		<path fill="#585856" d="M31.4,56.7c-0.1,0-0.2,0-0.4,0C25.3,56.9,20,54,17,49.2c-4.3-6.9-4.8-17.9-1.1-25.7c0.3-0.7,1.1-1,1.8-0.7
			c0,0,0,0,0,0c0.7,0.3,16.8,8.5,19,20c0.9,4.7-0.6,9.2-4.4,13.4C32.1,56.5,31.8,56.7,31.4,56.7z M17.9,25.9
			c-2.7,6.9-2.1,16,1.5,21.7c2.4,4,6.7,6.4,11.4,6.2l0,0c2.9-3.4,4-7,3.3-10.6C32.5,34.8,21.6,28.1,17.9,25.9z"/>
		<path fill="#585856" d="M31.4,56.6L31.4,56.6c-0.8,0-1.4-0.6-1.4-1.4c0,0,0,0,0-0.1c0-0.1,0-7.7-9.8-21.4
			c-0.4-0.6-0.3-1.5,0.3-1.9c0.6-0.4,1.5-0.3,1.9,0.3l0,0C32.9,46.8,32.8,55,32.8,55.3C32.7,56,32.1,56.6,31.4,56.6z"/>
		<path fill="#585856" d="M42.5,85C19,85,0,66,0,42.5S19,0,42.5,0S85,19,85,42.5C85,66,66,85,42.5,85z M42.5,2.8
			c-22,0-39.8,17.8-39.8,39.8s17.8,39.8,39.8,39.8s39.8-17.8,39.8-39.8C82.2,20.6,64.4,2.8,42.5,2.8z"/>
	</g>
</g>
</svg>
